<svg width="18" height="19" viewBox="0 0 18 19" fill="none" xmlns="http://www.w3.org/2000/svg">
<path d="M9 1.38C4.64 1.38 1 5.02 1 9.38C1 13.74 4.64 17.38 9 17.38C13.36 17.38 17 13.74 17 9.38C17 5.02 13.36 1.38 9 1.38ZM8 15.7C7.13486 15.5589 6.30748 15.2432 5.56823 14.7722C4.82899 14.3011 4.19335 13.6846 3.7 12.96C3.2134 12.2316 2.88003 11.4118 2.72015 10.5506C2.56028 9.6893 2.57724 8.80452 2.77 7.95001L7 12.06V12.86C7 13.74 7.12 14.18 8 14.18V15.7ZM13.72 13.7C13.52 13.04 12.72 12.38 12 12.38H11V10.38C11 9.94001 10.44 9.38 10 9.38H6V7.38H7C7.44 7.38 8 6.82 8 6.38V5.38H10C10.88 5.38 11.4 4.66001 11.4 3.78V3.45C12.3519 3.84159 13.1964 4.45533 13.8627 5.23993C14.529 6.02452 14.9978 6.95719 15.23 7.96C15.4546 8.96626 15.4347 10.0117 15.172 11.0087C14.9092 12.0056 14.4113 12.9251 13.72 13.69V13.7Z" fill="#838C95"/>
</svg>
