<svg width="19" height="18" viewBox="0 0 19 18" fill="none" xmlns="http://www.w3.org/2000/svg">
<g clip-path="url(#clip0_9_5686)">
<path d="M18.41 16.5072L13.27 11.3256H12.92C14.0204 9.92158 14.5435 8.15031 14.3826 6.37349C14.2216 4.59667 13.3887 2.94833 12.0539 1.76503C10.7191 0.581735 8.98304 -0.0472616 7.20029 0.00647601C5.41755 0.0602136 3.72255 0.792633 2.46139 2.05418C1.20023 3.31573 0.468033 5.01125 0.414312 6.79454C0.360591 8.57783 0.989395 10.3144 2.17233 11.6496C3.35526 12.9848 5.0031 13.818 6.77937 13.979C8.55565 14.14 10.3264 13.6167 11.73 12.516V12.8661L16.91 18.0077L18.41 16.5072ZM12.41 7.0043C12.41 8.33079 11.8832 9.60295 10.9455 10.5409C10.0078 11.4789 8.73607 12.0058 7.40999 12.0058C6.08391 12.0058 4.81214 11.4789 3.87446 10.5409C2.93678 9.60295 2.40999 8.33079 2.40999 7.0043C2.40999 5.67781 2.93678 4.40565 3.87446 3.46768C4.81214 2.52971 6.08391 2.00277 7.40999 2.00277C8.73607 2.00277 10.0078 2.52971 10.9455 3.46768C11.8832 4.40565 12.41 5.67781 12.41 7.0043Z" fill="#838C95"/>
</g>
<defs>
<clipPath id="clip0_9_5686">
<rect width="18" height="18.0055" fill="white" transform="translate(0.410034 0.00219727)"/>
</clipPath>
</defs>
</svg>
